<?xml version="1.0" encoding="utf-8"?>
<svg xmlns="http://www.w3.org/2000/svg" xmlns:xlink="http://www.w3.org/1999/xlink" version="1.0" x="0" y="0" width="2400" height="545.7222728887856" viewBox="54.491233367919925 98.73512222290039 231.01753326416016 52.52975555419922" preserveAspectRatio="xMidYMid meet" color-interpolation-filters="sRGB">
  <g>
    <defs>
      <linearGradient id="92" x1="0%" y1="0%" x2="100%" y2="0%">
        <stop offset="0%" stop-color="#fa71cd"/> <stop offset="100%" stop-color="#9b59b6"/>
      </linearGradient>
      <linearGradient id="93" x1="0%" y1="0%" x2="100%" y2="0%">
        <stop offset="0%" stop-color="#f9d423"/> <stop offset="100%" stop-color="#f83600"/>
      </linearGradient>
      <linearGradient id="94" x1="0%" y1="0%" x2="100%" y2="0%">
        <stop offset="0%" stop-color="#0064d2"/> <stop offset="100%" stop-color="#1cb0f6"/>
      </linearGradient>
      <linearGradient id="95" x1="0%" y1="0%" x2="100%" y2="0%">
        <stop offset="0%" stop-color="#f00978"/> <stop offset="100%" stop-color="#3f51b1"/>
      </linearGradient>
      <linearGradient id="96" x1="0%" y1="0%" x2="100%" y2="0%">
        <stop offset="0%" stop-color="#7873f5"/> <stop offset="100%" stop-color="#ec77ab"/>
      </linearGradient>
      <linearGradient id="97" x1="0%" y1="0%" x2="100%" y2="0%">
        <stop offset="0%" stop-color="#f9d423"/> <stop offset="100%" stop-color="#e14fad"/>
      </linearGradient>
      <linearGradient id="98" x1="0%" y1="0%" x2="100%" y2="0%">
        <stop offset="0%" stop-color="#009efd"/> <stop offset="100%" stop-color="#2af598"/>
      </linearGradient>
      <linearGradient id="99" x1="0%" y1="0%" x2="100%" y2="0%">
        <stop offset="0%" stop-color="#ffcc00"/> <stop offset="100%" stop-color="#00b140"/>
      </linearGradient>
      <linearGradient id="100" x1="0%" y1="0%" x2="100%" y2="0%">
        <stop offset="0%" stop-color="#d51007"/> <stop offset="100%" stop-color="#ff8177"/>
      </linearGradient>
      <linearGradient id="102" x1="0%" y1="0%" x2="100%" y2="0%">
        <stop offset="0%" stop-color="#a2b6df"/> <stop offset="100%" stop-color="#0c3483"/>
      </linearGradient>
      <linearGradient id="103" x1="0%" y1="0%" x2="100%" y2="0%">
        <stop offset="0%" stop-color="#7ac5d8"/> <stop offset="100%" stop-color="#eea2a2"/>
      </linearGradient>
      <linearGradient id="104" x1="0%" y1="0%" x2="100%" y2="0%">
        <stop offset="0%" stop-color="#00ecbc"/> <stop offset="100%" stop-color="#007adf"/>
      </linearGradient>
      <linearGradient id="105" x1="0%" y1="0%" x2="100%" y2="0%">
        <stop offset="0%" stop-color="#b88746"/> <stop offset="100%" stop-color="#fdf5a6"/>
      </linearGradient>
    </defs>
    <g fill="#000000" class="icon-text-wrapper icon-svg-group iconsvg" transform="translate(56.75611114501953,101)">
      <g class="iconsvg-imagesvg" transform="translate(0,0)">
        <g>
          <rect fill="#000000" fill-opacity="0" stroke-width="2" x="0" y="0" width="47.999999999999986" height="47.999999999999986" class="image-rect"/> <svg x="0" y="0" width="47.999999999999986" height="47.999999999999986" class="image-svg-svg primary" style="overflow: visible;">
            <svg fill="#18181b" version="1.1" x="0px" y="0px" viewBox="10.838 10.838 78.32401 78.32401" enable-background="new 0 0 100 100">
              <g display="none">
                <rect x="-139.282" y="-344.17" display="inline" fill="#18181b" stroke="#18181b" stroke-width="4.2729" stroke-miterlimit="10" width="1204.44" height="371.981"/>
              </g>
              <g>
                <path d="M87.162,50c0,8.031-17.046,9.589-22.309,14.852S58.031,87.162,50,87.162s-9.589-17.046-14.852-22.309   S12.838,58.031,12.838,50s17.046-9.589,22.309-14.852S41.969,12.838,50,12.838s9.589,17.046,14.852,22.309S87.162,41.969,87.162,50   z"/>
              </g>
            </svg>
          </svg> </g>
      </g> <g transform="translate(59.51222229003906,10)">
        <g fill-rule="" class="tp-name iconsvg-namesvg">
          <g transform="scale(1)">
            <g>
              <path fill="#18181b" d="M23.57-22.08C20.98-24.63 17.59-25.91 14.23-25.91 6.46-25.91 1.02-20.69 1.06-12.7 1.06-5.73 5.55 0.33 14.23 0.33 18.03 0.33 21.2-1.13 23.86-3.79L23.86-13.35 13.1-13.35 13.1-11.64 22-11.64 22-4.49C19.81-2.48 16.97-1.53 14.23-1.53 6.79-1.53 2.96-6.71 2.96-12.73 2.92-18.65 6.75-24.12 14.23-24.12 17.11-24.12 20.21-23.02 22.44-20.83ZM44.41-18.03L44.41-14.08C42.91-16.89 39.95-18.24 37.04-18.24 32-18.24 27.88-14.52 27.88-9.01 27.88-3.5 32 0.29 37.04 0.29 39.95 0.29 42.66-1.02 44.41-3.83L44.41 0 46.19 0C46.19-6.02 46.19-12 46.19-18.03ZM37.04-16.53C47.07-16.53 47.07-1.46 37.04-1.46 32.95-1.46 29.67-4.49 29.67-9.01 29.67-13.54 32.95-16.53 37.04-16.53ZM52.65-23.28L52.65-18.03 48.82-18.03 48.82-16.53 52.65-16.53 52.65-5.55C52.65-2.01 53.89 0.26 57.72 0.26 58.86 0.26 59.99-0.11 61.12-0.66L60.5-2.12C59.59-1.68 58.6-1.39 57.72-1.39 54.92-1.39 54.4-3.1 54.4-5.55L54.4-16.53 60.53-16.53 60.53-18.03 54.4-18.03 54.4-23.46ZM72.79 0.26C75.68 0.26 78.82-0.91 80.57-3.21L79.29-4.23C77.94-2.44 75.17-1.5 72.79-1.5 69.07-1.5 65.83-3.94 65.46-8.17L81.7-8.17C82.39-15.22 77.87-18.32 72.79-18.32 67.72-18.32 63.64-14.41 63.64-9.01 63.64-3.28 67.72 0.26 72.79 0.26ZM65.46-9.74C65.86-14.16 69.07-16.68 72.79-16.68 77.14-16.68 80.06-14.19 80.09-9.74ZM110.6-18.03L108.63-18.03 103.23-2.08 97.75-18.03 96.48-18.03 90.97-2.08 85.53-18.03 83.56-18.03 89.98 0 91.95 0 94.87-7.85 97.13-14.89 99.32-7.88 102.24 0 104.21 0ZM129.06-18.03L129.06-14.08C127.56-16.89 124.61-18.24 121.69-18.24 116.65-18.24 112.53-14.52 112.53-9.01 112.53-3.5 116.65 0.29 121.69 0.29 124.61 0.29 127.31-1.02 129.06-3.83L129.06 0 130.85 0C130.85-6.02 130.85-12 130.85-18.03ZM121.69-16.53C131.72-16.53 131.72-1.46 121.69-1.46 117.6-1.46 114.32-4.49 114.32-9.01 114.32-13.54 117.6-16.53 121.69-16.53ZM148.4-18.03L143.87-7.41 141.79-2.15 139.68-7.37 135.48-18.03 133.55-18.03 140.77-0.22 137.45 7.52 139.35 7.52 150.33-18.03ZM167.26-15.91C165.48-17.59 163.18-18.32 160.55-18.32 156.9-18.35 153.36-16.82 153.4-13.28 153.43-9.67 156.9-9.01 160.4-8.43 163.36-7.95 166.35-7.44 166.28-4.85 166.17-2.01 162.85-1.42 160.66-1.42 158.25-1.42 155.55-2.34 154.05-4.49L152.74-3.32C154.31-0.91 157.45 0.29 160.62 0.29 163.8 0.29 167.92-0.77 168.03-4.74 168.21-8.94 163.8-9.49 160.59-10.03 158.32-10.44 155.19-10.91 155.11-13.32 155.04-15.62 157.74-16.68 160.55-16.64 162.56-16.64 164.34-16.35 166.17-14.74Z" transform="translate(-1.0597820281982422, 25.90999984741211)"/>
            </g> </g>
        </g> </g>
    </g>
    <defs/>
  </g>
</svg>